<?xml version="1.0" standalone="no"?>
<!DOCTYPE svg PUBLIC "-//W3C//DTD SVG 20010904//EN"
 "http://www.w3.org/TR/2001/REC-SVG-20010904/DTD/svg10.dtd">
<svg version="1.0" xmlns="http://www.w3.org/2000/svg"
 width="685.000000pt" height="187.000000pt" viewBox="0 0 685.000000 187.000000"
 preserveAspectRatio="xMidYMid meet">

<g transform="translate(0.000000,187.000000) scale(0.100000,-0.100000)"
fill="#000000" stroke="none">
<path d="M5001 1680 c-120 -25 -233 -77 -333 -153 -46 -34 -68 -58 -68 -72 0
-22 77 -105 98 -105 7 0 39 20 72 44 123 90 240 129 390 129 149 0 278 -44
396 -134 28 -21 57 -39 65 -39 22 0 99 83 99 105 -1 26 -102 106 -189 150
-122 61 -191 77 -346 81 -77 2 -160 -1 -184 -6z"/>
<path d="M200 1583 c-35 -13 -60 -47 -60 -83 0 -47 22 -77 65 -89 94 -26 176
53 135 130 -21 37 -93 59 -140 42z"/>
<path d="M620 1015 l0 -575 81 0 81 0 -4 481 c-2 323 0 475 7 463 65 -111 198
-305 407 -594 l253 -350 88 0 87 0 0 575 0 575 -80 0 -80 0 1 -387 c0 -214 4
-426 8 -473 4 -47 7 -86 5 -88 -1 -2 -23 33 -48 78 -66 113 -122 194 -386 554
l-232 316 -94 0 -94 0 0 -575z"/>
<path d="M5098 1289 c-125 -17 -256 -115 -311 -230 -129 -275 67 -589 370
-591 232 -1 413 179 413 412 0 255 -217 443 -472 409z"/>
<path d="M2175 1276 c-154 -37 -261 -138 -307 -289 -16 -55 -20 -88 -16 -171
3 -91 7 -109 36 -168 79 -162 250 -239 495 -225 94 6 223 31 240 47 13 11 -19
106 -34 102 -7 -2 -37 -10 -68 -18 -79 -20 -255 -19 -322 3 -77 25 -152 100
-173 172 -29 100 -62 91 319 91 l334 0 7 36 c9 51 -12 167 -43 232 -76 160
-267 237 -468 188z m222 -121 c71 -36 123 -121 123 -202 l0 -23 -255 0 -255 0
6 28 c21 88 75 161 145 196 73 36 164 36 236 1z"/>
<path d="M4329 1275 c-54 -17 -132 -83 -158 -133 l-19 -36 -7 82 -7 82 -75 0
-76 0 6 -67 c4 -38 7 -224 7 -415 l0 -348 85 0 85 0 0 243 c0 292 6 324 79
397 51 51 119 76 187 68 l35 -4 -3 70 -3 71 -45 2 c-25 1 -66 -4 -91 -12z"/>
<path d="M6260 1276 c-69 -20 -111 -44 -162 -94 l-48 -46 0 36 c0 19 -3 50 -6
67 l-6 31 -76 0 -75 0 6 -122 c4 -66 7 -253 7 -415 l0 -293 85 0 85 0 0 273
c0 307 4 323 75 386 53 46 99 63 173 63 94 1 148 -31 187 -107 l30 -59 3 -278
4 -278 85 0 84 0 -3 303 c-3 301 -3 302 -29 357 -37 79 -72 115 -144 151 -52
26 -79 32 -147 35 -50 2 -101 -2 -128 -10z"/>
<path d="M160 855 l0 -415 85 0 85 0 0 415 0 415 -85 0 -85 0 0 -415z"/>
<path d="M2902 968 c3 -284 5 -306 26 -358 26 -67 88 -130 157 -162 42 -19 67
-23 150 -23 88 0 107 4 160 28 33 15 81 49 108 75 l47 46 0 -36 c0 -19 3 -50
6 -67 l7 -31 75 0 75 0 -6 122 c-4 66 -7 253 -7 415 l0 293 -85 0 -85 0 0
-275 c0 -302 -2 -316 -60 -373 -61 -61 -147 -88 -233 -71 -67 12 -105 43 -135
108 -26 55 -26 60 -30 334 l-4 277 -85 0 -85 0 4 -302z"/>
<path d="M4525 1147 c-71 -154 -71 -380 0 -534 26 -57 30 -59 70 -41 31 14 31
20 -2 115 -24 67 -27 94 -27 193 0 99 3 126 27 193 33 95 33 101 2 115 -40 18
-44 16 -70 -41z"/>
<path d="M5723 1188 c-29 -14 -29 -21 4 -115 23 -67 27 -94 27 -193 0 -99 -4
-126 -27 -193 -15 -42 -27 -83 -27 -91 0 -12 40 -36 61 -36 16 0 56 101 73
183 28 135 14 284 -39 403 -25 55 -34 61 -72 42z"/>
<path d="M4642 367 c-23 -23 -42 -52 -42 -63 0 -24 108 -108 195 -152 126 -62
194 -77 365 -77 173 0 240 15 370 80 88 44 189 124 190 150 0 22 -77 105 -99
105 -8 0 -37 -18 -65 -39 -118 -90 -247 -134 -396 -134 -150 0 -268 39 -390
129 -33 24 -66 44 -73 44 -7 0 -32 -19 -55 -43z"/>
</g>
</svg>
